<svg version="1.1" xmlns="http://www.w3.org/2000/svg" xmlns:xlink="http://www.w3.org/1999/xlink" viewBox="0 0 512 512">
	<style type="text/css">
		.st0{fill:#4B4B4B;}
	</style>
	<g>
		<path class="st0" d="M256,265.308c73.252,0,132.644-59.391,132.644-132.654C388.644,59.412,329.252,0,256,0
			c-73.262,0-132.643,59.412-132.643,132.654C123.357,205.917,182.738,265.308,256,265.308z" style="fill: rgb(75, 75, 75);"></path>
		<path class="st0" d="M425.874,393.104c-5.922-35.474-36-84.509-57.552-107.465c-5.829-6.212-15.948-3.628-19.504-1.427
			c-27.04,16.672-58.782,26.399-92.819,26.399c-34.036,0-65.778-9.727-92.818-26.399c-3.555-2.201-13.675-4.785-19.505,1.427
			c-21.55,22.956-51.628,71.991-57.551,107.465C71.573,480.444,164.877,512,256,512C347.123,512,440.427,480.444,425.874,393.104z" style="fill: rgb(75, 75, 75);"></path>
	</g>
</svg>
